<?xml version="1.0" encoding="utf-8"?>
<!-- Generator: Adobe Illustrator 27.1.0, SVG Export Plug-In . SVG Version: 6.00 Build 0)  -->
<svg version="1.1" id="Layer_1" xmlns="http://www.w3.org/2000/svg" xmlns:xlink="http://www.w3.org/1999/xlink" x="0px" y="0px"
	 viewBox="0 0 16 16" style="enable-background:new 0 0 16 16;" xml:space="preserve">
<style type="text/css">
	.st0{fill:#FFFFFF;}
</style>
<path class="st0" d="M7.6,7.3C8,7.5,8.1,8,7.9,8.4C7.8,8.5,7.7,8.6,7.6,8.7l-6.4,3.7c-0.5,0.3-1.2,0-1.2-0.7V4.3
	c0-0.7,0.7-1,1.2-0.7L7.6,7.3z"/>
<path class="st0" d="M15.6,7.3C16,7.5,16.1,8,15.9,8.4c-0.1,0.1-0.2,0.2-0.3,0.3l-6.4,3.7c-0.5,0.3-1.2,0-1.2-0.7V4.3
	c0-0.7,0.7-1,1.2-0.7L15.6,7.3z"/>
</svg>
