<?xml version="1.0" encoding="utf-8"?>
<!-- Generator: Adobe Illustrator 27.1.0, SVG Export Plug-In . SVG Version: 6.00 Build 0)  -->
<svg version="1.1" id="Layer_1" xmlns="http://www.w3.org/2000/svg" xmlns:xlink="http://www.w3.org/1999/xlink" x="0px" y="0px"
	 viewBox="0 0 16 16" style="enable-background:new 0 0 16 16;" xml:space="preserve">
<style type="text/css">
	.st0{fill:#FFFFFF;}
</style>
<path class="st0" d="M3.5,0C3.8,0,4,0.2,4,0.5V1h8V0.5C12,0.2,12.2,0,12.5,0S13,0.2,13,0.5V1h1c1.1,0,2,0.9,2,2v11c0,1.1-0.9,2-2,2
	H2c-1.1,0-2-0.9-2-2V3c0-1.1,0.9-2,2-2h1V0.5C3,0.2,3.2,0,3.5,0 M2,2C1.4,2,1,2.4,1,3v1h14V3c0-0.6-0.4-1-1-1H2z M15,5H1v9
	c0,0.6,0.4,1,1,1h12c0.6,0,1-0.4,1-1V5z"/>
<path class="st0" d="M11,7.5C11,7.2,11.2,7,11.5,7h1C12.8,7,13,7.2,13,7.5v1C13,8.8,12.8,9,12.5,9h-1C11.2,9,11,8.8,11,8.5V7.5z"/>
</svg>
