<?xml version="1.0" encoding="utf-8"?>
<!-- Generator: Adobe Illustrator 27.1.0, SVG Export Plug-In . SVG Version: 6.00 Build 0)  -->
<svg version="1.1" id="Layer_1" xmlns="http://www.w3.org/2000/svg" xmlns:xlink="http://www.w3.org/1999/xlink" x="0px" y="0px"
	 viewBox="0 0 16 16" style="enable-background:new 0 0 16 16;" xml:space="preserve">
<style type="text/css">
	.st0{fill:#FFFFFF;}
</style>
<path class="st0" d="M8.4,7.3C8,7.5,7.9,8,8.1,8.4c0.1,0.1,0.2,0.2,0.3,0.3l6.4,3.7c0.5,0.3,1.2,0,1.2-0.7V4.3c0-0.7-0.7-1-1.2-0.7
	L8.4,7.3z"/>
<path class="st0" d="M0.4,7.3C0,7.5-0.1,8,0.1,8.4c0.1,0.1,0.2,0.2,0.3,0.3l6.4,3.7c0.5,0.3,1.2,0,1.2-0.7V4.3c0-0.7-0.7-1-1.2-0.7
	L0.4,7.3z"/>
</svg>
